<?xml version="1.0" encoding="utf-8"?>
<!-- Generator: Adobe Illustrator 19.2.1, SVG Export Plug-In . SVG Version: 6.00 Build 0)  -->
<svg version="1.1" id="logo_rose" xmlns="http://www.w3.org/2000/svg" xmlns:xlink="http://www.w3.org/1999/xlink" x="0px" y="0px"
	 viewBox="0 0 441 154.3" style="enable-background:new 0 0 441 154.3;" xml:space="preserve">
<style type="text/css">
	.st0{fill:#E85693;}
</style>
<g>
	<path class="st0" d="M105.4,84.8c-2-2-4.7-2.8-7.3-2.6L83.5,62.7c1.4-3,0.9-6.6-1.6-9.1c-3.1-3.1-8.2-3.1-11.3,0
		c-2.7,2.7-3.1,6.8-1.1,9.9L58.7,80.8c-1.3-0.5-2.9-0.5-4.3,0l-5.8-7.1c0.3-0.6,0.5-1.2,0.5-1.9c0-2.2-1.8-4-4-4c-2.2,0-4,1.8-4,4
		c0,2.2,1.8,4,4,4c0.2,0,0.3,0,0.5,0l5.6,8.2c-1,2.2-0.6,4.9,1.2,6.7c2.3,2.3,6.1,2.3,8.5,0c1.7-1.7,2.1-4.1,1.4-6.2l12.8-17.3
		c0.7,0.1,1.4,0.1,2.1,0l13.4,20.4c-1.4,3.3-0.8,7.2,1.9,9.9c3.5,3.5,9.2,3.5,12.7,0C108.9,94,108.9,88.3,105.4,84.8"/>
	<path class="st0" d="M131.3,85.3v-3c0-2,0.7-3.6,2-5c1.3-1.3,3.2-2,5.7-2h10.2V70c0-1.5-0.5-2.6-1.5-3.4c-1-0.8-2.7-1.2-5.2-1.2
		c-2.5,0-4.2,0.4-5.2,1.1c-1,0.7-1.5,1.8-1.5,3.3v0.7c0,0.6-0.3,1-0.9,1h-2.1c-0.6,0-0.8-0.3-0.8-1v-1c0-5,3.6-7.5,10.7-7.5
		c7.1,0,10.7,2.5,10.7,7.5v21.3c0,0.6-0.3,0.9-0.8,0.9h-2.2c-0.6,0-0.9-0.3-0.9-0.9l-0.1-2.1c-2.9,2.3-6.2,3.5-9.8,3.4
		c-2.6,0-4.7-0.7-6.1-2C132,89,131.3,87.3,131.3,85.3 M135.3,84.7c0,2.7,1.7,4.1,5.1,4.1c3,0,5.9-1.1,8.8-3.3v-7h-9.4
		c-3,0-4.5,1.4-4.5,4.3V84.7z"/>
	<path class="st0" d="M162.2,90.9V51.3c0-0.6,0.3-0.9,0.9-0.9h2.3c0.6,0,0.8,0.3,0.8,0.9v39.6c0,0.6-0.3,0.9-0.8,0.9h-2.3
		C162.5,91.8,162.2,91.5,162.2,90.9"/>
	<path class="st0" d="M172.1,63.4c0-0.1-0.1-0.2-0.1-0.3c0-0.4,0.3-0.6,0.9-0.6h2.3c0.5,0,0.8,0.3,0.9,0.9l5.6,20.6
		c0.1,0.3,0.2,0.6,0.2,1c0.1,0.4,0.1,0.7,0.2,0.9c0.1,0.3,0.1,0.4,0.1,0.4c0-0.2,0.2-0.9,0.6-2.4l5.7-20.6c0.2-0.6,0.5-0.9,1-0.9
		h2.5c0.5,0,0.8,0.3,0.9,0.9l5.3,20.7l0.6,2.3c0-0.2,0.2-1,0.7-2.3l5.5-20.6c0.2-0.6,0.5-0.9,1-0.9h2c0.5,0,0.8,0.2,0.8,0.5
		c0,0.1,0,0.2-0.1,0.3L201,90.9c-0.2,0.6-0.4,0.8-0.9,0.8h-2.9c-0.5,0-0.8-0.3-0.9-0.8l-5.2-20c-0.1-0.3-0.3-1.2-0.6-2.8l-0.8,2.8
		l-5.6,19.9c-0.2,0.6-0.5,0.8-0.9,0.8h-2.7c-0.5,0-0.8-0.3-1-0.8L172.1,63.4z"/>
	<path class="st0" d="M213.5,85.3v-3c0-2,0.7-3.6,2-5c1.3-1.3,3.2-2,5.7-2h10.2V70c0-1.5-0.5-2.6-1.5-3.4c-1-0.8-2.7-1.2-5.2-1.2
		c-2.5,0-4.2,0.4-5.2,1.1c-1,0.7-1.5,1.8-1.5,3.3v0.7c0,0.6-0.3,1-0.9,1H215c-0.6,0-0.8-0.3-0.8-1v-1c0-5,3.6-7.5,10.7-7.5
		c7.1,0,10.7,2.5,10.7,7.5v21.3c0,0.6-0.3,0.9-0.8,0.9h-2.2c-0.6,0-0.9-0.3-0.9-0.9l-0.1-2.1c-2.9,2.3-6.2,3.5-9.8,3.4
		c-2.6,0-4.7-0.7-6.1-2C214.3,89,213.5,87.3,213.5,85.3 M217.5,84.7c0,2.7,1.7,4.1,5.1,4.1c3,0,5.9-1.1,8.8-3.3v-7H222
		c-3,0-4.5,1.4-4.5,4.3V84.7z"/>
	<path class="st0" d="M240.8,63.4c0-0.1-0.1-0.2-0.1-0.3c0-0.4,0.3-0.5,0.8-0.5h2.4c0.5,0,0.8,0.3,1,0.9l6.7,19.7
		c0.2,0.5,0.3,1,0.4,1.6c0.1,0.6,0.2,1,0.3,1.4c0.1,0.4,0.1,0.6,0.1,0.6c0.4-1.6,0.7-2.7,1-3.4l6.8-19.8c0.2-0.6,0.5-0.9,1-0.9h2.3
		c0.6,0,0.8,0.2,0.8,0.5c0,0.1,0,0.2-0.1,0.3l-13.6,39.7c-0.2,0.6-0.6,0.9-1,0.9h-1.8c-0.7,0-0.9-0.3-0.7-0.9l3.6-11.1L240.8,63.4z"
		/>
	<path class="st0" d="M268.5,85.6V84c0-0.6,0.3-0.8,0.8-0.8h2.2c0.5,0,0.8,0.3,0.8,0.8v1.4c0,2.5,2.3,3.7,6.9,3.7c2.3,0,4-0.3,5.2-1
		c1.2-0.7,1.8-1.6,1.8-2.7v-2.2c0-1.5-1.2-2.6-3.5-3.3l-9.1-3c-1.2-0.4-2.2-1.1-3.2-2.1c-0.9-1-1.4-2.2-1.4-3.6v-2.3
		c0-2,0.8-3.6,2.5-4.8c1.6-1.3,4.2-1.9,7.8-1.9c3.5,0,6.1,0.6,7.8,1.9c1.7,1.3,2.5,2.9,2.5,4.8v1.7c0,0.5-0.3,0.8-0.8,0.8h-2.2
		c-0.5,0-0.8-0.2-0.8-0.7v-1.7c0-2.4-2.2-3.6-6.6-3.6c-4.3,0-6.4,1.2-6.4,3.6v1.5c0,1.5,1,2.6,3,3.2l9.1,3c3.4,1.1,5.1,3,5.1,5.6
		v3.4c0,1.9-0.9,3.5-2.7,4.8c-1.8,1.3-4.5,1.9-8.1,1.9c-3.6,0-6.3-0.6-8.1-1.9C269.4,89.1,268.5,87.5,268.5,85.6"/>
	<path class="st0" d="M296.8,84.7v-15c0-2.3,0.7-4.2,2-5.5c1.4-1.4,3.4-2,6.2-2c3.5,0,6.9,1.1,10,3.4V51.2c0-0.6,0.3-0.9,0.8-0.9
		h2.4c0.6,0,0.9,0.3,0.9,0.9v39.7c0,0.6-0.3,0.9-0.9,0.9h-2.1c-0.6,0-0.9-0.3-0.9-0.9l-0.1-2.1c-3,2.3-6.4,3.4-10.1,3.4
		c-2.8,0-4.8-0.7-6.2-2C297.5,88.8,296.8,87,296.8,84.7 M300.8,84.2c0,1.3,0.4,2.4,1.3,3.2c0.9,0.8,2.2,1.2,3.9,1.2c3,0,6-1.1,9-3.3
		V69.1c-2.9-2.3-5.9-3.4-9-3.4c-1.8,0-3.1,0.4-3.9,1.3c-0.9,0.8-1.3,1.9-1.3,3.2V84.2z"/>
	<path class="st0" d="M327.5,85.3v-3c0-2,0.7-3.6,2-5c1.3-1.3,3.2-2,5.7-2h10.2V70c0-1.5-0.5-2.6-1.5-3.4c-1-0.8-2.7-1.2-5.2-1.2
		c-2.5,0-4.2,0.4-5.2,1.1c-1,0.7-1.5,1.8-1.5,3.3v0.7c0,0.6-0.3,1-0.9,1h-2.1c-0.6,0-0.8-0.3-0.8-1v-1c0-5,3.6-7.5,10.7-7.5
		c7.1,0,10.7,2.5,10.7,7.5v21.3c0,0.6-0.3,0.9-0.8,0.9h-2.2c-0.6,0-0.9-0.3-0.9-0.9l-0.1-2.1c-2.9,2.3-6.2,3.5-9.8,3.4
		c-2.6,0-4.7-0.7-6.1-2C328.2,89,327.5,87.3,327.5,85.3 M331.4,84.7c0,2.7,1.7,4.1,5.1,4.1c3,0,5.9-1.1,8.8-3.3v-7h-9.4
		c-3,0-4.5,1.4-4.5,4.3V84.7z"/>
	<path class="st0" d="M355.2,65.1v-1.4c0-0.6,0.3-0.8,0.8-0.9l3.1-0.2h0.5v-6.3c0-0.6,0.3-0.9,0.9-0.9h2.4c0.6,0,0.8,0.3,0.8,0.9
		v6.3h6.7c0.6,0,0.9,0.3,0.9,0.8v1.6c0,0.6-0.3,0.9-0.9,0.9h-6.7v17.6c0,1.5,0.5,2.6,1.6,3.4c1.1,0.8,2.8,1.1,5.3,1.1h1
		c0.6,0,0.9,0.3,0.9,0.9v1.8c0,0.6-0.3,0.9-0.9,0.9h-1.6c-3.9,0-6.6-0.6-8.1-1.9c-1.6-1.3-2.3-3.2-2.3-5.7V66h-3.6
		C355.5,66,355.2,65.7,355.2,65.1"/>
	<path class="st0" d="M377.9,85.3v-3c0-2,0.7-3.6,2-5c1.3-1.3,3.2-2,5.7-2h10.2V70c0-1.5-0.5-2.6-1.5-3.4c-1-0.8-2.7-1.2-5.2-1.2
		c-2.5,0-4.2,0.4-5.2,1.1c-1,0.7-1.5,1.8-1.5,3.3v0.7c0,0.6-0.3,1-0.9,1h-2.1c-0.6,0-0.8-0.3-0.8-1v-1c0-5,3.6-7.5,10.7-7.5
		c7.1,0,10.7,2.5,10.7,7.5v21.3c0,0.6-0.3,0.9-0.8,0.9h-2.2c-0.6,0-0.9-0.3-0.9-0.9l-0.1-2.1c-2.9,2.3-6.2,3.5-9.8,3.4
		c-2.6,0-4.7-0.7-6.1-2C378.6,89,377.9,87.3,377.9,85.3 M381.8,84.7c0,2.7,1.7,4.1,5.1,4.1c3,0,5.9-1.1,8.8-3.3v-7h-9.4
		c-3,0-4.5,1.4-4.5,4.3V84.7z"/>
</g>
</svg>
