<?xml version="1.0" encoding="utf-8"?>
<!-- Generator: Adobe Illustrator 19.2.1, SVG Export Plug-In . SVG Version: 6.00 Build 0)  -->
<svg version="1.1" xmlns="http://www.w3.org/2000/svg" xmlns:xlink="http://www.w3.org/1999/xlink" x="0px" y="0px"
	 viewBox="0 0 198.4 198.4" style="enable-background:new 0 0 198.4 198.4;" xml:space="preserve">
<style type="text/css">
	.st0{fill:#FFFFFF;}
	.st1{fill:#E85693;}
</style>
<g id="Calque_2">
	<rect class="st0" width="198.4" height="198.4"/>
</g>
<g id="Calque_1">
	<path class="st1" d="M159.5,118.3c-3.9-3.9-9.3-5.6-14.4-5.1l-28.9-38.7c2.8-5.9,1.7-13.1-3.1-18c-6.2-6.2-16.2-6.2-22.4,0
		c-5.3,5.3-6.1,13.4-2.3,19.5l-21.3,34.3c-2.7-1-5.7-1.1-8.6,0.1L47.1,96.4c0.6-1.1,1-2.4,1-3.8c0-4.4-3.5-7.9-7.9-7.9
		c-4.4,0-7.9,3.6-7.9,7.9c0,4.4,3.6,7.9,7.9,7.9c0.3,0,0.7-0.1,1-0.1l11.1,16.2c-2,4.4-1.2,9.7,2.4,13.3c4.6,4.6,12.2,4.7,16.8,0
		c3.3-3.3,4.2-8.1,2.8-12.2l25.4-34.2c1.4,0.2,2.8,0.2,4.2,0l26.7,40.5c-2.8,6.5-1.5,14.3,3.8,19.6c7,7,18.3,7,25.2,0
		C166.5,136.6,166.5,125.3,159.5,118.3"/>
</g>
</svg>
