<?xml version="1.0" encoding="UTF-8" standalone="no"?>
<svg
   xmlns:dc="http://purl.org/dc/elements/1.1/"
   xmlns:cc="http://creativecommons.org/ns#"
   xmlns:rdf="http://www.w3.org/1999/02/22-rdf-syntax-ns#"
   xmlns:svg="http://www.w3.org/2000/svg"
   xmlns="http://www.w3.org/2000/svg"
   viewBox="0 0 1067.9467 1021.948"
   height="1021.948"
   width="1067.9467"
   xml:space="preserve"
   id="svg2"
   version="1.1"><metadata
     id="metadata8"><rdf:RDF><cc:Work
         rdf:about=""><dc:format>image/svg+xml</dc:format><dc:type
           rdf:resource="http://purl.org/dc/dcmitype/StillImage" /></cc:Work></rdf:RDF></metadata><defs
     id="defs6"><clipPath
       id="clipPath18"
       clipPathUnits="userSpaceOnUse"><path
         id="path16"
         d="M 0,766.461 H 800.96 V 0 H 0 Z" /></clipPath></defs><g
     transform="matrix(1.3333333,0,0,-1.3333333,0,1021.948)"
     id="g10"><g
       id="g12"><g
         clip-path="url(#clipPath18)"
         id="g14"><g
           transform="translate(387.8296,761.5723)"
           id="g20"><path
             id="path22"
             style="fill:#784e29;fill-opacity:1;fill-rule:nonzero;stroke:none"
             d="M 0,0 V 0.055 C -0.502,0.052 -0.979,0.029 -1.479,0.029 c -0.499,0 -0.979,0.023 -1.478,0.026 V 0 C -194.81,-1.848 -291.248,-85.685 -291.248,-85.685 v -339.05 c 0,-264.142 289.769,-335.106 289.769,-335.106 0,0 289.77,70.964 289.77,335.106 v 339.05 c 0,0 -96.438,83.837 -288.291,85.685" /></g><g
           transform="translate(386.4028,40.9297)"
           id="g24"><path
             id="path26"
             style="fill:#ffffff;fill-opacity:1;fill-rule:nonzero;stroke:none"
             d="m 0,0 c -20.599,6.32 -73.401,24.798 -125.133,61.489 -84.253,59.752 -126.971,138.622 -126.971,234.418 v 319.889 c 30.559,20.092 114.897,65.819 250.937,67.13 l 1.193,0.011 1.037,-0.011 C 136.973,681.618 221.289,635.969 252,615.779 V 295.907 C 252,199.387 208.662,120.081 123.188,60.19 71.666,24.088 20.271,6.171 0,0" /></g><g
           transform="translate(386.4028,40.9297)"
           id="g28"><path
             id="path30"
             style="fill:#ffffff;fill-opacity:1;fill-rule:nonzero;stroke:none"
             d="m 0,0 c -20.599,6.32 -73.401,24.798 -125.133,61.489 -84.253,59.752 -126.971,138.622 -126.971,234.418 v 319.889 c 30.559,20.092 114.897,65.819 250.937,67.13 l 1.193,0.011 1.037,-0.011 C 136.973,681.618 221.289,635.969 252,615.779 V 295.907 C 252,199.387 208.662,120.081 123.188,60.19 71.666,24.088 20.271,6.171 0,0" /></g><g
           transform="translate(387.1885,618.8794)"
           id="g32"><path
             id="path34"
             style="fill:#784e29;fill-opacity:1;fill-rule:nonzero;stroke:none"
             d="m 0,0 h -1.709 c -115.195,-1.112 -190.837,-35.361 -226.036,-55.975 v -226.067 c 0,-77.524 30.989,-143.007 92.153,-195.076 7.614,-6.482 15.667,-12.768 24.217,-18.832 43.483,-30.839 87.862,-48.051 110.613,-55.608 22.216,7.344 65.465,24.07 108.739,54.392 32.282,22.622 57.995,48.216 77.09,76.629 27.246,40.55 41.003,86.846 41.003,138.495 v 226.05 C 190.865,-35.373 115.215,-1.112 0,0" /></g><g
           transform="translate(189.2285,645.0894)"
           id="g36"><path
             id="path38"
             style="fill:#fecd47;fill-opacity:1;fill-rule:nonzero;stroke:none"
             d="M 0,0 1.972,31.538 23.161,6.896 59.136,16.753 35.976,-10.846 54.208,-34.5 18.726,-26.121 -5.42,-51.253 l 1.969,30.555 -32.525,9.852 z" /></g><g
           transform="translate(577.5576,650.2637)"
           id="g40"><path
             id="path42"
             style="fill:#fecd47;fill-opacity:1;fill-rule:nonzero;stroke:none"
             d="m 0,0 -1.97,31.538 -21.194,-24.642 -35.973,9.857 23.163,-27.598 -18.237,-23.655 35.482,8.379 24.151,-25.132 -1.975,30.555 32.526,9.853 z" /></g><g
           transform="translate(372.3062,680.0747)"
           id="g44"><path
             id="path46"
             style="fill:#fecd47;fill-opacity:1;fill-rule:nonzero;stroke:none"
             d="M 0,0 11.333,29.077 24.146,0.497 H 60.125 L 32.525,-18.232 43.862,-48.788 11.827,-30.059 -20.207,-48.788 -8.379,-20.201 -36.96,0 Z" /></g><g
           transform="translate(608.0811,325.1338)"
           id="g48"><path
             id="path50"
             style="fill:#784e29;fill-opacity:1;fill-rule:nonzero;stroke:none"
             d="m 0,0 -17.002,4.806 c 0,0 -13.675,-47.679 -5.913,-86.858 -18.85,-1.847 -32.525,4.436 -32.525,5.544 0,1.11 -2.587,68.008 -2.587,68.008 0,0 23.654,95.727 23.654,97.205 0,1.479 -43.982,79.835 -43.982,79.835 1.108,0.369 39.546,22.915 39.546,22.915 l 24.025,8.87 c 12.2,3.696 59.893,14.213 94.621,-29.198 C 110.884,132.318 99.796,80.204 82.055,51.375 64.314,22.546 40.284,-2.587 0,0" /></g><g
           transform="translate(400.9795,482.9521)"
           id="g52"><path
             id="path54"
             style="fill:#d5a97e;fill-opacity:1;fill-rule:nonzero;stroke:none"
             d="m 0,0 c 0,0 13.41,25.119 44.375,31.491 29.574,6.393 54.35,-7.193 68.734,-25.176 0,0 -13.183,-4.794 -30.768,4.793 1.599,-6.393 18.307,-27.27 57.069,-8.489 38.763,18.78 35.753,28.835 63.774,30.943 32.131,2.417 81.711,-4.427 89.299,-70.765 3.696,-55.441 -26.612,-89.195 -50.266,-102.501 -23.753,-13.361 -49.036,0.49 -49.036,0.49 0,0 26.242,33.265 39.426,58.646 -29.17,-19.979 -54.211,-43.862 -60.753,-84.151 -5.209,-32.075 -3.598,-132.803 -3.598,-132.803 L 2.021,-208.809 17.41,-168.131 C 17.41,-168.131 0.803,-0.401 0,0" /></g><g
           transform="translate(594.4092,343.2451)"
           id="g56"><path
             id="path58"
             style="fill:#ffffff;fill-opacity:1;fill-rule:nonzero;stroke:none"
             d="m 0,0 c 4.833,20.697 26.021,45.337 39.668,59.63 -29.169,-19.979 -56.18,-45.831 -61.244,-84.642 -1.854,-14.216 -3.598,-40.896 -4.66,-65.937 -0.797,-24.775 -0.751,-44.315 1.437,-60.834 l -67.47,36.008 c 0.821,10.146 6.428,44.32 6.428,44.32 0,0 -13.658,157.936 96.634,181.911 C 82.722,124.842 78.292,68.064 78.292,68.064 78.754,52.729 67.418,-11.828 0,0" /></g><g
           transform="translate(476.3896,333.2383)"
           id="g60"><path
             id="path62"
             style="fill:#794f2a;fill-opacity:1;fill-rule:nonzero;stroke:none"
             d="m 0,0 c -0.717,-0.953 -1.369,-1.95 -2.153,-2.856 l -1.146,-1.39 -1.204,-1.337 c -0.799,-0.898 -1.669,-1.729 -2.53,-2.569 -0.886,-0.814 -1.767,-1.639 -2.7,-2.403 -0.91,-0.795 -1.876,-1.516 -2.826,-2.266 -0.976,-0.71 -1.948,-1.436 -2.966,-2.087 -1.001,-0.682 -2.037,-1.308 -3.069,-1.944 -1.047,-0.605 -2.09,-1.226 -3.164,-1.788 -1.062,-0.585 -2.15,-1.119 -3.236,-1.661 -1.095,-0.522 -2.194,-1.038 -3.315,-1.504 -1.117,-0.472 -2.241,-0.934 -3.378,-1.358 -1.133,-0.437 -2.278,-0.842 -3.428,-1.232 -2.303,-0.779 -4.635,-1.472 -6.996,-2.08 -1.182,-0.302 -2.368,-0.591 -3.57,-0.836 -1.216,-0.244 -2.376,-0.464 -3.693,-0.646 -1.356,-0.187 -2.606,0.762 -2.793,2.118 -0.15,1.092 0.436,2.116 1.378,2.57 l 0.207,0.099 c 1.704,0.819 3.436,1.573 5.086,2.493 1.684,0.849 3.288,1.844 4.911,2.794 1.576,1.031 3.169,2.031 4.678,3.155 0.769,0.54 1.534,1.084 2.268,1.671 0.738,0.583 1.504,1.126 2.216,1.741 l 2.156,1.81 2.082,1.897 c 1.358,1.297 2.723,2.585 3.997,3.965 1.307,1.347 2.535,2.771 3.747,4.204 1.206,1.439 2.355,2.924 3.495,4.417 l 1.644,2.288 1.576,2.336 c 1.025,1.575 2.012,3.174 2.949,4.803 1.887,3.249 3.589,6.609 5.084,10.05 0.746,1.722 1.435,3.464 2.093,5.216 0.628,1.76 1.24,3.527 1.743,5.314 0.526,1.783 0.964,3.579 1.315,5.368 0.355,1.782 0.631,3.579 0.705,5.253 L 3.797,42.16 c -1.149,0.317 -2.3,0.614 -3.443,0.948 -1.135,0.366 -2.275,0.707 -3.393,1.127 -1.116,0.423 -2.242,0.813 -3.337,1.297 l -1.646,0.702 -1.616,0.779 c -1.085,0.499 -2.125,1.095 -3.18,1.651 -1.036,0.599 -2.062,1.211 -3.059,1.87 -1.001,0.653 -1.986,1.325 -2.942,2.041 -0.97,0.692 -1.893,1.451 -2.817,2.2 l -1.354,1.165 -1.292,1.231 c -0.848,0.834 -1.683,1.679 -2.469,2.567 -0.8,0.873 -1.558,1.784 -2.297,2.704 -0.729,0.93 -1.406,1.899 -2.064,2.874 -0.649,0.983 -1.273,1.978 -1.852,2.997 -0.593,1.01 -1.099,2.071 -1.594,3.126 -0.476,1.066 -0.949,2.129 -1.319,3.232 -0.374,1.1 -0.725,2.207 -0.938,3.343 1.062,-2.039 2.345,-3.919 3.681,-5.73 0.674,-0.904 1.396,-1.767 2.109,-2.627 0.714,-0.859 1.465,-1.685 2.231,-2.491 0.771,-0.804 1.571,-1.572 2.377,-2.33 0.805,-0.757 1.62,-1.5 2.471,-2.2 0.836,-0.715 1.712,-1.383 2.592,-2.036 0.882,-0.653 1.789,-1.267 2.686,-1.89 0.915,-0.598 1.821,-1.206 2.77,-1.746 0.933,-0.563 1.891,-1.084 2.859,-1.585 0.96,-0.512 1.959,-0.953 2.935,-1.428 0.999,-0.435 1.973,-0.91 2.995,-1.293 l 1.514,-0.603 1.536,-0.549 c 1.015,-0.391 2.065,-0.692 3.099,-1.026 1.034,-0.334 2.102,-0.578 3.143,-0.892 l 3.18,-0.772 0.013,-0.003 C 6.982,48.423 8.048,46.96 7.997,45.371 7.928,43.152 7.64,41.086 7.258,39.048 6.87,37.014 6.394,35.023 5.829,33.069 5.285,31.105 4.635,29.188 3.964,27.279 3.271,25.38 2.524,23.504 1.708,21.659 0.082,17.969 -1.759,14.381 -3.801,10.909 -4.823,9.175 -5.913,7.48 -7.035,5.809 l -1.73,-2.477 -1.8,-2.426 -1.882,-2.364 c -0.638,-0.78 -1.312,-1.531 -1.965,-2.298 -1.341,-1.504 -2.697,-2.996 -4.139,-4.406 -1.409,-1.441 -2.899,-2.803 -4.409,-4.137 l -2.308,-1.954 -2.383,-1.859 c -0.787,-0.629 -1.631,-1.185 -2.444,-1.781 -0.811,-0.595 -1.646,-1.159 -2.499,-1.696 -1.676,-1.118 -3.433,-2.103 -5.171,-3.115 -1.785,-0.929 -3.547,-1.897 -5.384,-2.71 -1.803,-0.885 -3.683,-1.597 -5.531,-2.367 l -1.208,4.787 c 1.045,0.091 2.236,0.251 3.361,0.422 1.139,0.173 2.285,0.355 3.424,0.57 2.283,0.425 4.555,0.934 6.807,1.528 1.125,0.298 2.248,0.612 3.361,0.955 1.119,0.332 2.224,0.701 3.327,1.081 2.203,0.764 4.393,1.58 6.534,2.514 1.08,0.45 2.131,0.959 3.191,1.455 1.044,0.524 2.096,1.04 3.116,1.614 1.038,0.544 2.031,1.163 3.052,1.742 0.99,0.626 2.003,1.226 2.962,1.903 0.984,0.645 1.921,1.355 2.869,2.056 0.921,0.731 1.858,1.453 2.749,2.227 l 1.341,1.163 1.287,1.221 C -1.632,-1.744 -0.841,-0.843 0,0" /></g><g
           transform="translate(415.6396,514.0713)"
           id="g64"><path
             id="path66"
             style="fill:#784e29;fill-opacity:1;fill-rule:nonzero;stroke:none"
             d="m 0,0 c 0,0 44.084,-42.167 23.458,-98.396 -12.87,32.554 -39.366,83.276 -39.366,83.276 z" /></g><g
           transform="translate(476.5342,331.417)"
           id="g68"><path
             id="path70"
             style="fill:#d5a97e;fill-opacity:1;fill-rule:nonzero;stroke:none"
             d="m 0,0 c 0,0 -28.581,-34.494 -58.148,-27.102 2.46,17.741 51.72,46.42 57.05,71.995 -43.255,11.781 -36.339,39.366 -36.339,39.366 12.787,50.087 -38.793,123.924 -98.467,111.137 -59.679,-12.789 -88.451,-39.429 -103.368,-65.006 -5.33,-22.376 -2.131,-57.543 -2.131,-57.543 0,0 -14.92,-14.917 -26.64,-46.89 12.786,-61.805 79.921,-103.362 79.921,-103.362 -14.92,2.131 -29.837,10.655 -29.837,10.655 0,0 -81.078,-71.017 -45.853,-141.762 7.615,-6.482 54.541,6.088 63.091,0.025 43.484,-30.839 87.862,-48.052 110.613,-55.609 22.216,7.344 65.465,24.071 108.739,54.393 32.282,22.621 57.995,48.216 77.091,76.629 -5.588,17.227 -12.409,34.001 -20.632,49.273 -13.008,24.165 -30.922,9.653 -44.043,23.68 -0.803,0.858 0.055,35.395 -0.736,36.219 C 19.271,-12.439 21.737,-14.671 0,0" /></g><g
           transform="translate(293.7422,379.7549)"
           id="g72"><path
             id="path74"
             style="fill:#eaceb5;fill-opacity:1;fill-rule:nonzero;stroke:none"
             d="m 0,0 c 0,0 -17.054,67.135 35.165,105.499 76.727,24.509 80.988,-49.02 80.988,-49.02 0,0 -11.722,-56.476 -39.428,-80.989 C 62.87,-10.658 29.834,-2.128 6.393,-8.524 2.131,-3.199 0,0 0,0" /></g><g
           transform="translate(252.1821,474.5981)"
           id="g76"><path
             id="path78"
             style="fill:#eaceb5;fill-opacity:1;fill-rule:nonzero;stroke:none"
             d="m 0,0 c 0,0 14.92,3.194 26.64,-6.396 0,-19.182 -2.131,-56.479 -11.72,-83.117 -17.051,-6.393 -21.316,-8.529 -21.316,-8.529 l 4.265,-7.459 c 0,0 -29.306,-2.062 -31.436,10.727 6.393,15.982 15.982,30.169 15.982,30.169 0,0 -1.995,29.574 1.998,49.954 C -11.322,-3.996 0,0 0,0" /></g><g
           transform="translate(264.1685,384.0195)"
           id="g80"><path
             id="path82"
             style="fill:#3b2c24;fill-opacity:1;fill-rule:nonzero;stroke:none"
             d="m 0,0 c 0,0 -19.179,-1.6 -25.976,-9.593 5.197,-6.794 7.995,-10.787 10.79,-15.181 4.398,-2.799 12.789,-4 16.786,0 3.996,3.993 16.782,11.985 18.381,-1.203 4.395,2.799 4.395,14.788 4.395,14.788 0,0 -10.788,11.587 -24.376,11.189" /></g><g
           transform="translate(275.3604,296.1025)"
           id="g84"><path
             id="path86"
             style="fill:#3b2c24;fill-opacity:1;fill-rule:nonzero;stroke:none"
             d="m 0,0 c 0,0 6.046,-8.342 13.583,-16.383 11.989,-12.789 33.57,-10.791 37.566,6.794 1.999,10.39 -1.599,21.18 -7.992,29.568 C 36.764,28.373 32.456,35.142 19.179,34.767 -9.194,33.97 -2.399,7.993 0,0" /></g><g
           transform="translate(246.1875,331.2676)"
           id="g88"><path
             id="path90"
             style="fill:#ffffff;fill-opacity:1;fill-rule:nonzero;stroke:none"
             d="m 0,0 c 0,0 -0.8,-29.967 7.592,-32.765 8.39,-2.798 6.791,24.376 6.791,24.376 0,0 1.201,-23.977 15.587,-27.573 6.393,-1.6 12.786,-2.798 14.385,9.988 1.6,12.789 1.999,17.585 3.2,25.576 C 38.762,-0.398 7.99,-3.196 0,0" /></g><g
           transform="translate(332.103,425.978)"
           id="g92"><path
             id="path94"
             style="fill:#3b2c24;fill-opacity:1;fill-rule:nonzero;stroke:none"
             d="M 0,0 C 0,0 -16.785,-20.38 -1.998,-39.161 7.193,-33.57 25.176,-11.989 0,0" /></g><g
           transform="translate(244.9893,419.9834)"
           id="g96"><path
             id="path98"
             style="fill:#3b2c24;fill-opacity:1;fill-rule:nonzero;stroke:none"
             d="m 0,0 c 0,0 6.393,-2.396 6.393,-10.389 0,-7.993 -1.6,-13.589 -7.594,-14.385 C -3.199,-18.382 -0.803,-1.998 0,0" /></g><g
           transform="translate(547.5264,239.3174)"
           id="g100"><path
             id="path102"
             style="fill:#784e29;fill-opacity:1;fill-rule:nonzero;stroke:none"
             d="M 0,0 C 0,0 -44.785,14.978 -81.745,52.677 -27.783,29.022 20.022,17.195 27.6,3.45 13.307,1.48 0,0 0,0" /></g><g
           transform="translate(273.6396,509.3213)"
           id="g104"><path
             id="path106"
             style="fill:#d5a97e;fill-opacity:1;fill-rule:nonzero;stroke:none"
             d="m 0,0 c 0,0 -5.694,10.995 -6.09,24.327 5.683,15.656 20.978,29.814 33.7,40.249 4.719,-8.074 7.641,-18.377 6.14,-27.993 C 32.249,26.968 28.25,14 28.25,14 Z" /></g><g
           transform="translate(378.8838,522.563)"
           id="g108"><path
             id="path110"
             style="fill:#d5a97e;fill-opacity:1;fill-rule:nonzero;stroke:none"
             d="m 0,0 c 0,0 0.757,17.677 3.052,35.903 10.372,17.935 36.074,29.701 36.074,29.701 0,0 12.439,-31.45 8.082,-53.17 C 38.676,-0.069 24.327,-14.059 24.327,-14.059 Z" /></g><g
           transform="translate(394.9126,522.1123)"
           id="g112"><path
             id="path114"
             style="fill:#794f2a;fill-opacity:1;fill-rule:nonzero;stroke:none"
             d="m 0,0 c 0,0 -0.304,0.684 -0.603,1.946 -0.124,0.627 -0.322,1.405 -0.41,2.295 -0.124,0.894 -0.184,1.905 -0.208,3.012 -0.016,1.107 0.039,2.306 0.157,3.57 0.153,1.255 0.31,2.594 0.641,3.936 0.266,1.364 0.681,2.733 1.148,4.111 0.417,1.399 1.081,2.722 1.642,4.089 0.655,1.322 1.37,2.614 2.091,3.871 0.789,1.216 1.614,2.381 2.419,3.495 0.87,1.069 1.756,2.063 2.598,2.993 0.837,0.934 1.775,1.691 2.583,2.424 0.835,0.711 1.578,1.372 2.34,1.855 0.735,0.507 1.405,0.914 1.947,1.253 0.534,0.345 0.99,0.576 1.284,0.749 0.305,0.16 0.467,0.246 0.467,0.246 0,0 -0.079,-0.169 -0.226,-0.487 -0.16,-0.305 -0.367,-0.776 -0.676,-1.323 -0.303,-0.555 -0.658,-1.232 -1.099,-1.969 -0.459,-0.72 -0.885,-1.602 -1.397,-2.51 -0.258,-0.45 -0.527,-0.918 -0.805,-1.403 -0.281,-0.48 -0.592,-0.958 -0.847,-1.494 C 12.497,29.617 11.897,28.543 11.264,27.451 10.698,26.315 10.105,25.159 9.457,24.013 8.917,22.81 8.276,21.638 7.711,20.432 L 6.881,18.617 C 6.603,18.014 6.301,17.424 6.069,16.811 5.824,16.203 5.56,15.606 5.293,15.018 5.028,14.428 4.834,13.823 4.582,13.246 4.086,12.085 3.688,10.938 3.262,9.849 2.866,8.757 2.484,7.712 2.151,6.737 1.818,5.761 1.504,4.856 1.252,4.043 0.975,3.231 0.761,2.514 0.567,1.915 0.41,1.316 0.228,0.838 0.149,0.511 0.052,0.178 0,0 0,0" /></g><g
           transform="translate(116.2925,265.6279)"
           id="g116"><path
             id="path118"
             style="fill:#784e29;fill-opacity:1;fill-rule:nonzero;stroke:none"
             d="m 0,0 c 0,0 -37.945,-7.883 -111.866,-7.883 9.855,-12.814 63.572,-102.013 63.572,-102.013 l -7.637,-76.383 H 7.146 l 4.93,-26.613 c 0,0 89.695,-16.53 246.894,30.556 157.946,47.31 200.325,44.353 200.325,44.353 0,0 -21.436,-35.724 -20.449,-52.974 18.729,2.956 121.224,21.928 241.963,7.144 -18.723,31.537 -53.962,95.108 -53.962,95.108 l 18.729,85.748 c 0,0 -40.906,10.353 -112.851,6.901 -71.951,-3.45 -391.288,-94.124 -428.249,-94.124 -36.96,0 -45.83,5.91 -45.83,5.91 0,0 -25.133,53.223 -38.439,77.372 C 2.466,0.988 0,0 0,0" /></g><g
           transform="translate(164.5146,209.4463)"
           id="g120"><path
             id="path122"
             style="fill:#b7cb30;fill-opacity:1;fill-rule:nonzero;stroke:none"
             d="m 0,0 c 0,0 -12.458,-5.542 -43.125,-6.875 21.191,-3.45 103.17,-15.709 243.524,23.879 115.317,32.525 169.279,42.135 290.511,44.352 5.423,-42.874 10.837,-63.323 10.837,-63.323 l 3.944,34.494 c 0,0 30.06,-0.491 53.714,-2.463 -3.447,-13.799 -14.287,-64.559 -14.287,-64.559 l 34.742,-61.6 c 0,0 -67.025,3.945 -164.103,-5.42 0,0 25.852,22.911 34.985,32.526 0,0 63.34,10.121 77.633,10.614 -26.5,5 -151.063,-1.747 -299.395,-40.677 -148.332,-38.929 -218.311,-34.497 -240.487,-31.046 0,0 -6.16,51.744 -15.524,81.313 -1.478,-16.757 2.218,-52.236 2.218,-52.236 l -46.325,0.491 4.19,56.179 -35.976,63.573 c 0,0 53.299,1.653 88.549,13.153 0,0 6.375,-18.5 14.375,-32.375" /></g><g
           transform="translate(229.375,176.2764)"
           id="g124"><path
             id="path126"
             style="fill:#ffffff;fill-opacity:1;fill-rule:nonzero;stroke:none"
             d="m 0,0 c 3.456,-22.478 9.898,-43.638 18.666,-64.214 2.282,20.5 6.605,39.136 3.664,59.782 -0.691,4.85 -1.364,9.575 -3.655,14.07 7.765,1.616 15.44,2.963 24.271,4.221 -6.744,-29.258 -16.171,-57.503 -11.829,-87.974 l 0.177,-1.244 -20.451,-6.975 C 7.688,-60.197 -6.582,-21.496 -23.987,-6.211 -16.329,-3.849 -8.298,-1.437 0,0" /></g><g
           transform="translate(307.4976,116.2432)"
           id="g128"><path
             id="path130"
             style="fill:#ffffff;fill-opacity:1;fill-rule:nonzero;stroke:none"
             d="M 0,0 C 8.004,1.615 19.023,11.149 17.282,19.77 15.938,26.42 6.716,29.555 0.067,28.211 -9.169,26.346 -12.974,19.168 -11.207,10.425 -10.112,5.005 -6.527,-1.318 0,0 m 13.458,34.249 c -2.115,10.467 -6.735,29.527 -22.499,26.345 -5.91,-1.196 -11.025,-6.33 -9.68,-12.98 0.696,-3.448 3.431,-3.666 5.771,-3.191 -0.771,3.816 -1.247,7.438 3.555,8.407 3.08,0.623 5.842,-0.999 6.489,-4.198 1.219,-6.035 -2.865,-9.296 -8.529,-10.442 -6.034,-1.219 -12.149,1.134 -13.518,7.909 -2.364,11.698 8.755,20.737 18.976,22.803 9.605,1.941 24.27,-0.864 26.61,-12.439 C 22.523,47.104 33.424,5.215 35.06,0.29 l 0.125,-0.614 C 31.467,-1.589 23.613,-4.585 20.263,-5.134 L 18.497,3.607 C 9.386,-11.563 -14.352,-19.05 -21.406,-2.532 -33.455,22.206 -9.587,38.564 13.458,34.249" /></g><g
           transform="translate(344.7485,180.4824)"
           id="g132"><path
             id="path134"
             style="fill:#ffffff;fill-opacity:1;fill-rule:nonzero;stroke:none"
             d="m 0,0 12.48,3.966 2.107,-5.95 0.983,1.794 c 3.837,6.502 6.11,10.423 15.138,12.638 29.04,7.125 36.019,-41.354 32.531,-65.106 L 52.33,-53.007 c -0.005,-1.035 0.035,56.797 -22.659,51.23 -12.567,-3.082 -8.528,-20.074 -6.493,-28.37 l 0.389,-1.586 c 2.683,-6.715 5.029,-13.642 9.145,-19.875 l -19.448,-1.927 c 0,0 -0.182,0.213 -0.212,0.335 C 10.562,-30.396 8.285,-21.643 0,0" /></g><g
           transform="translate(460.1416,183.3848)"
           id="g136"><path
             id="path138"
             style="fill:#ffffff;fill-opacity:1;fill-rule:nonzero;stroke:none"
             d="M 0,0 -0.33,1.34 C -7.417,30.128 -38.129,21.403 -31.103,-7.142 -23.775,-36.904 9.941,-40.376 0,0 M -19.209,29.685 C -4.083,33.406 5.623,21.307 10.359,8.37 11.417,5.654 12.2,3.002 12.8,0.563 24.513,-47.011 -31.431,-56.254 -41.671,-14.66 c -6.336,25.739 2.335,39.389 22.462,44.345" /></g><g
           transform="translate(480.793,211.5322)"
           id="g140"><path
             id="path142"
             style="fill:#ffffff;fill-opacity:1;fill-rule:nonzero;stroke:none"
             d="M 0,0 17.329,3.671 C 16.702,-17.007 26.6,-35.842 31.442,-54.462 L 14.114,-58.133 C 13.413,-31.187 4.791,-18.375 0,0" /></g><g
           transform="translate(520.7627,163.5664)"
           id="g144"><path
             id="path146"
             style="fill:#ffffff;fill-opacity:1;fill-rule:nonzero;stroke:none"
             d="M 0,0 C 2.401,2.327 8.316,18.267 16.969,39.014 12.174,43.158 0.074,52.667 -7.146,58.305 L 5.926,68.98 c 6.168,-9.135 11.49,-14.844 17.4,-18.794 5.321,14.944 5.889,16.827 6.699,19.516 L 45.959,68.248 C 38.315,57.875 35.66,49.642 31.201,42.239 39.727,32.749 55.15,16.546 62.723,7.399 L 48.591,1.388 C 44.973,9.048 32.083,26.071 25.783,33.016 21.557,21.32 20.359,7.599 17.347,-2.995 Z" /></g><g
           transform="translate(481.3477,247.0205)"
           id="g148"><path
             id="path150"
             style="fill:#ffffff;fill-opacity:1;fill-rule:nonzero;stroke:none"
             d="m 0,0 c 7.041,1.492 12.734,-2.589 14.016,-8.642 1.282,-6.051 -2.267,-12.092 -9.309,-13.583 -7.042,-1.492 -13.065,2.52 -14.346,8.573 C -10.921,-7.602 -7.042,-1.492 0,0" /></g></g></g></g></svg>